<svg width="4110" height="2055" viewBox="0 0 4110 2055" fill="none" xmlns="http://www.w3.org/2000/svg">
<g clip-path="url(#clip0_583_76)">
<path d="M4110 0H0V2055H4110V0Z" fill="#009639"/>
<path d="M4110 0H0V1370H4110V0Z" fill="white"/>
<path d="M4110 0H0V685H4110V0Z" fill="black"/>
<path d="M0 0L1370 1027.5L0 2055V0Z" fill="#ED2E38"/>
<path d="M870.206 331.825H906.935C913.403 331.825 918.716 330.285 922.874 327.205C927.032 324.125 929.111 319.12 929.111 312.19C929.111 308.34 928.418 305.183 927.032 302.719C925.646 300.255 923.798 298.33 921.488 296.944C919.178 295.558 916.483 294.634 913.403 294.172C910.477 293.556 907.397 293.248 904.163 293.248H870.206V331.825ZM833.939 265.066H911.555C919.409 265.066 926.57 265.759 933.038 267.145C939.506 268.531 945.05 270.841 949.67 274.075C954.29 277.155 957.832 281.313 960.296 286.549C962.914 291.785 964.223 298.253 964.223 305.953C964.223 314.269 962.298 321.199 958.448 326.743C954.752 332.287 949.208 336.83 941.816 340.372C951.98 343.298 959.526 348.457 964.454 355.849C969.536 363.087 972.077 371.865 972.077 382.183C972.077 390.499 970.46 397.737 967.226 403.897C963.992 409.903 959.603 414.831 954.059 418.681C948.669 422.531 942.432 425.38 935.348 427.228C928.418 429.076 921.257 430 913.865 430H833.939V265.066ZM870.206 401.818H909.014C912.556 401.818 915.944 401.51 919.178 400.894C922.412 400.124 925.261 398.969 927.725 397.429C930.189 395.735 932.114 393.502 933.5 390.73C935.04 387.958 935.81 384.416 935.81 380.104C935.81 371.634 933.423 365.628 928.649 362.086C923.875 358.39 917.561 356.542 909.707 356.542H870.206V401.818ZM1105.16 430H1073.97V413.368H1073.28C1069.12 420.298 1063.73 425.303 1057.11 428.383C1050.49 431.463 1043.71 433.003 1036.78 433.003C1028 433.003 1020.76 431.848 1015.07 429.538C1009.52 427.228 1005.13 423.994 1001.9 419.836C998.665 415.524 996.355 410.365 994.969 404.359C993.737 398.199 993.121 391.423 993.121 384.031V310.573H1025.92V378.025C1025.92 387.881 1027.46 395.273 1030.54 400.201C1033.62 404.975 1039.09 407.362 1046.94 407.362C1055.88 407.362 1062.34 404.744 1066.35 399.508C1070.35 394.118 1072.35 385.34 1072.35 373.174V310.573H1105.16V430ZM1188.96 444.784C1185.42 454.486 1180.49 461.416 1174.17 465.574C1167.86 469.732 1159.08 471.811 1147.84 471.811C1144.45 471.811 1141.06 471.657 1137.68 471.349C1134.44 471.195 1131.13 470.964 1127.74 470.656V443.629C1130.82 443.937 1133.98 444.245 1137.21 444.553C1140.45 444.861 1143.68 444.938 1146.92 444.784C1151.23 444.322 1154.38 442.628 1156.39 439.702C1158.54 436.776 1159.62 433.542 1159.62 430C1159.62 427.382 1159.16 424.918 1158.23 422.608L1116.42 310.573H1151.3L1178.33 392.347H1178.79L1204.9 310.573H1238.85L1188.96 444.784ZM1353.86 342.682H1382.04C1386.2 342.682 1390.21 342.374 1394.06 341.758C1397.91 341.142 1401.29 339.987 1404.22 338.293C1407.15 336.445 1409.46 333.904 1411.15 330.67C1413 327.436 1413.92 323.201 1413.92 317.965C1413.92 312.729 1413 308.494 1411.15 305.26C1409.46 302.026 1407.15 299.562 1404.22 297.868C1401.29 296.02 1397.91 294.788 1394.06 294.172C1390.21 293.556 1386.2 293.248 1382.04 293.248H1353.86V342.682ZM1317.6 265.066H1391.98C1402.3 265.066 1411.07 266.606 1418.31 269.686C1425.55 272.612 1431.4 276.539 1435.87 281.467C1440.49 286.395 1443.8 292.016 1445.8 298.33C1447.96 304.644 1449.03 311.189 1449.03 317.965C1449.03 324.587 1447.96 331.132 1445.8 337.6C1443.8 343.914 1440.49 349.535 1435.87 354.463C1431.4 359.391 1425.55 363.395 1418.31 366.475C1411.07 369.401 1402.3 370.864 1391.98 370.864H1353.86V430H1317.6V265.066ZM1466.82 347.302C1467.28 339.602 1469.21 333.211 1472.59 328.129C1475.98 323.047 1480.29 318.966 1485.53 315.886C1490.77 312.806 1496.62 310.65 1503.09 309.418C1509.71 308.032 1516.33 307.339 1522.95 307.339C1528.96 307.339 1535.04 307.801 1541.2 308.725C1547.36 309.495 1552.98 311.112 1558.06 313.576C1563.15 316.04 1567.3 319.505 1570.54 323.971C1573.77 328.283 1575.39 334.058 1575.39 341.296V403.435C1575.39 408.825 1575.7 413.984 1576.31 418.912C1576.93 423.84 1578.01 427.536 1579.55 430H1546.28C1545.67 428.152 1545.13 426.304 1544.67 424.456C1544.36 422.454 1544.13 420.452 1543.97 418.45C1538.74 423.84 1532.58 427.613 1525.49 429.769C1518.41 431.925 1511.17 433.003 1503.78 433.003C1498.08 433.003 1492.77 432.31 1487.84 430.924C1482.91 429.538 1478.6 427.382 1474.9 424.456C1471.21 421.53 1468.28 417.834 1466.13 413.368C1464.12 408.902 1463.12 403.589 1463.12 397.429C1463.12 390.653 1464.28 385.109 1466.59 380.797C1469.05 376.331 1472.13 372.789 1475.83 370.171C1479.68 367.553 1483.99 365.628 1488.76 364.396C1493.69 363.01 1498.62 361.932 1503.55 361.162C1508.48 360.392 1513.33 359.776 1518.1 359.314C1522.88 358.852 1527.11 358.159 1530.81 357.235C1534.5 356.311 1537.43 355.002 1539.58 353.308C1541.74 351.46 1542.74 348.842 1542.59 345.454C1542.59 341.912 1541.97 339.14 1540.74 337.138C1539.66 334.982 1538.12 333.365 1536.12 332.287C1534.27 331.055 1532.04 330.285 1529.42 329.977C1526.96 329.515 1524.26 329.284 1521.34 329.284C1514.87 329.284 1509.79 330.67 1506.09 333.442C1502.39 336.214 1500.24 340.834 1499.62 347.302H1466.82ZM1542.59 371.557C1541.2 372.789 1539.43 373.79 1537.27 374.56C1535.27 375.176 1533.04 375.715 1530.58 376.177C1528.27 376.639 1525.8 377.024 1523.18 377.332C1520.57 377.64 1517.95 378.025 1515.33 378.487C1512.87 378.949 1510.4 379.565 1507.94 380.335C1505.63 381.105 1503.55 382.183 1501.7 383.569C1500.01 384.801 1498.62 386.418 1497.54 388.42C1496.46 390.422 1495.93 392.963 1495.93 396.043C1495.93 398.969 1496.46 401.433 1497.54 403.435C1498.62 405.437 1500.08 407.054 1501.93 408.286C1503.78 409.364 1505.94 410.134 1508.4 410.596C1510.86 411.058 1513.4 411.289 1516.02 411.289C1522.49 411.289 1527.5 410.211 1531.04 408.055C1534.58 405.899 1537.2 403.358 1538.89 400.432C1540.59 397.352 1541.59 394.272 1541.89 391.192C1542.36 388.112 1542.59 385.648 1542.59 383.8V371.557ZM1601.77 265.066H1634.58V430H1601.77V265.066ZM1740.79 357.466C1739.25 349.15 1736.48 342.836 1732.48 338.524C1728.63 334.212 1722.7 332.056 1714.69 332.056C1709.45 332.056 1705.06 332.98 1701.52 334.828C1698.13 336.522 1695.36 338.678 1693.21 341.296C1691.2 343.914 1689.74 346.686 1688.82 349.612C1688.05 352.538 1687.59 355.156 1687.43 357.466H1740.79ZM1687.43 378.256C1687.89 388.882 1690.59 396.582 1695.52 401.356C1700.44 406.13 1707.53 408.517 1716.77 408.517C1723.39 408.517 1729.09 406.9 1733.86 403.666C1738.64 400.278 1741.56 396.736 1742.64 393.04H1771.52C1766.9 407.362 1759.81 417.603 1750.26 423.763C1740.72 429.923 1729.17 433.003 1715.61 433.003C1706.22 433.003 1697.75 431.54 1690.2 428.614C1682.66 425.534 1676.27 421.222 1671.03 415.678C1665.79 410.134 1661.71 403.512 1658.79 395.812C1656.02 388.112 1654.63 379.642 1654.63 370.402C1654.63 361.47 1656.09 353.154 1659.02 345.454C1661.94 337.754 1666.1 331.132 1671.49 325.588C1676.88 319.89 1683.27 315.424 1690.67 312.19C1698.21 308.956 1706.53 307.339 1715.61 307.339C1725.78 307.339 1734.63 309.341 1742.18 313.345C1749.72 317.195 1755.88 322.431 1760.66 329.053C1765.59 335.675 1769.13 343.221 1771.28 351.691C1773.44 360.161 1774.21 369.016 1773.59 378.256H1687.43ZM1818.46 391.192C1818.46 394.734 1819.15 397.814 1820.54 400.432C1822.08 402.896 1824 404.975 1826.31 406.669C1828.62 408.209 1831.24 409.364 1834.17 410.134C1837.25 410.904 1840.4 411.289 1843.64 411.289C1845.95 411.289 1848.34 411.058 1850.8 410.596C1853.42 409.98 1855.73 409.133 1857.73 408.055C1859.89 406.823 1861.66 405.283 1863.04 403.435C1864.43 401.433 1865.12 398.969 1865.12 396.043C1865.12 391.115 1861.81 387.419 1855.19 384.955C1848.72 382.491 1839.63 380.027 1827.93 377.563C1823.16 376.485 1818.46 375.253 1813.84 373.867C1809.37 372.327 1805.37 370.402 1801.83 368.092C1798.29 365.628 1795.44 362.625 1793.28 359.083C1791.12 355.387 1790.05 350.921 1790.05 345.685C1790.05 337.985 1791.51 331.671 1794.44 326.743C1797.52 321.815 1801.52 317.965 1806.45 315.193C1811.38 312.267 1816.92 310.265 1823.08 309.187C1829.24 307.955 1835.55 307.339 1842.02 307.339C1848.49 307.339 1854.73 307.955 1860.73 309.187C1866.89 310.419 1872.36 312.498 1877.13 315.424C1881.91 318.35 1885.83 322.277 1888.91 327.205C1892.15 331.979 1894.07 338.062 1894.69 345.454H1863.5C1863.04 339.14 1860.66 334.905 1856.34 332.749C1852.03 330.439 1846.95 329.284 1841.1 329.284C1839.25 329.284 1837.25 329.438 1835.09 329.746C1832.94 329.9 1830.93 330.362 1829.09 331.132C1827.39 331.902 1825.93 333.057 1824.7 334.597C1823.46 335.983 1822.85 337.908 1822.85 340.372C1822.85 343.298 1823.93 345.685 1826.08 347.533C1828.24 349.381 1831.01 350.921 1834.4 352.153C1837.94 353.231 1841.94 354.232 1846.41 355.156C1850.88 356.08 1855.42 357.081 1860.04 358.159C1864.81 359.237 1869.43 360.546 1873.9 362.086C1878.52 363.626 1882.6 365.705 1886.14 368.323C1889.68 370.787 1892.53 373.944 1894.69 377.794C1896.85 381.49 1897.92 386.11 1897.92 391.654C1897.92 399.508 1896.31 406.13 1893.07 411.52C1889.99 416.756 1885.91 420.991 1880.83 424.225C1875.75 427.459 1869.9 429.692 1863.27 430.924C1856.81 432.31 1850.18 433.003 1843.41 433.003C1836.48 433.003 1829.7 432.31 1823.08 430.924C1816.46 429.538 1810.53 427.228 1805.29 423.994C1800.21 420.76 1795.98 416.525 1792.59 411.289C1789.35 405.899 1787.58 399.2 1787.27 391.192H1818.46ZM1958.7 310.573H1982.73V332.518H1958.7V391.654C1958.7 397.198 1959.63 400.894 1961.47 402.742C1963.32 404.59 1967.02 405.514 1972.56 405.514C1974.41 405.514 1976.18 405.437 1977.87 405.283C1979.57 405.129 1981.19 404.898 1982.73 404.59V430C1979.95 430.462 1976.87 430.77 1973.49 430.924C1970.1 431.078 1966.79 431.155 1963.55 431.155C1958.47 431.155 1953.62 430.77 1949 430C1944.53 429.384 1940.53 428.075 1936.99 426.073C1933.6 424.071 1930.9 421.222 1928.9 417.526C1926.9 413.83 1925.9 408.979 1925.9 402.973V332.518H1906.03V310.573H1925.9V274.768H1958.7V310.573ZM2032.06 292.093H1999.26V265.066H2032.06V292.093ZM1999.26 310.573H2032.06V430H1999.26V310.573ZM2057.89 310.573H2089.07V327.205H2089.77C2093.92 320.275 2099.31 315.27 2105.94 312.19C2112.56 308.956 2119.33 307.339 2126.26 307.339C2135.04 307.339 2142.2 308.571 2147.75 311.035C2153.44 313.345 2157.91 316.656 2161.14 320.968C2164.38 325.126 2166.61 330.285 2167.84 336.445C2169.23 342.451 2169.92 349.15 2169.92 356.542V430H2137.12V362.548C2137.12 352.692 2135.58 345.377 2132.5 340.603C2129.42 335.675 2123.95 333.211 2116.1 333.211C2107.17 333.211 2100.7 335.906 2096.7 341.296C2092.69 346.532 2090.69 355.233 2090.69 367.399V430H2057.89V310.573ZM2275.21 357.466C2273.67 349.15 2270.89 342.836 2266.89 338.524C2263.04 334.212 2257.11 332.056 2249.1 332.056C2243.87 332.056 2239.48 332.98 2235.94 334.828C2232.55 336.522 2229.78 338.678 2227.62 341.296C2225.62 343.914 2224.15 346.686 2223.23 349.612C2222.46 352.538 2222 355.156 2221.84 357.466H2275.21ZM2221.84 378.256C2222.31 388.882 2225 396.582 2229.93 401.356C2234.86 406.13 2241.94 408.517 2251.18 408.517C2257.8 408.517 2263.5 406.9 2268.28 403.666C2273.05 400.278 2275.98 396.736 2277.05 393.04H2305.93C2301.31 407.362 2294.22 417.603 2284.68 423.763C2275.13 429.923 2263.58 433.003 2250.03 433.003C2240.63 433.003 2232.16 431.54 2224.62 428.614C2217.07 425.534 2210.68 421.222 2205.44 415.678C2200.21 410.134 2196.13 403.512 2193.2 395.812C2190.43 388.112 2189.04 379.642 2189.04 370.402C2189.04 361.47 2190.51 353.154 2193.43 345.454C2196.36 337.754 2200.52 331.132 2205.91 325.588C2211.3 319.89 2217.69 315.424 2225.08 312.19C2232.62 308.956 2240.94 307.339 2250.03 307.339C2260.19 307.339 2269.05 309.341 2276.59 313.345C2284.14 317.195 2290.3 322.431 2295.07 329.053C2300 335.675 2303.54 343.221 2305.7 351.691C2307.85 360.161 2308.62 369.016 2308.01 378.256H2221.84ZM2417.16 391.192C2417.16 394.734 2417.86 397.814 2419.24 400.432C2420.78 402.896 2422.71 404.975 2425.02 406.669C2427.33 408.209 2429.95 409.364 2432.87 410.134C2435.95 410.904 2439.11 411.289 2442.34 411.289C2444.65 411.289 2447.04 411.058 2449.5 410.596C2452.12 409.98 2454.43 409.133 2456.43 408.055C2458.59 406.823 2460.36 405.283 2461.75 403.435C2463.13 401.433 2463.83 398.969 2463.83 396.043C2463.83 391.115 2460.52 387.419 2453.89 384.955C2447.43 382.491 2438.34 380.027 2426.64 377.563C2421.86 376.485 2417.16 375.253 2412.54 373.867C2408.08 372.327 2404.07 370.402 2400.53 368.092C2396.99 365.628 2394.14 362.625 2391.99 359.083C2389.83 355.387 2388.75 350.921 2388.75 345.685C2388.75 337.985 2390.21 331.671 2393.14 326.743C2396.22 321.815 2400.22 317.965 2405.15 315.193C2410.08 312.267 2415.62 310.265 2421.78 309.187C2427.94 307.955 2434.26 307.339 2440.73 307.339C2447.19 307.339 2453.43 307.955 2459.44 309.187C2465.6 310.419 2471.06 312.498 2475.84 315.424C2480.61 318.35 2484.54 322.277 2487.62 327.205C2490.85 331.979 2492.78 338.062 2493.39 345.454H2462.21C2461.75 339.14 2459.36 334.905 2455.05 332.749C2450.74 330.439 2445.65 329.284 2439.8 329.284C2437.95 329.284 2435.95 329.438 2433.8 329.746C2431.64 329.9 2429.64 330.362 2427.79 331.132C2426.1 331.902 2424.63 333.057 2423.4 334.597C2422.17 335.983 2421.55 337.908 2421.55 340.372C2421.55 343.298 2422.63 345.685 2424.79 347.533C2426.94 349.381 2429.72 350.921 2433.1 352.153C2436.65 353.231 2440.65 354.232 2445.12 355.156C2449.58 356.08 2454.12 357.081 2458.74 358.159C2463.52 359.237 2468.14 360.546 2472.6 362.086C2477.22 363.626 2481.31 365.705 2484.85 368.323C2488.39 370.787 2491.24 373.944 2493.39 377.794C2495.55 381.49 2496.63 386.11 2496.63 391.654C2496.63 399.508 2495.01 406.13 2491.78 411.52C2488.7 416.756 2484.62 420.991 2479.53 424.225C2474.45 427.459 2468.6 429.692 2461.98 430.924C2455.51 432.31 2448.89 433.003 2442.11 433.003C2435.18 433.003 2428.41 432.31 2421.78 430.924C2415.16 429.538 2409.23 427.228 2404 423.994C2398.92 420.76 2394.68 416.525 2391.29 411.289C2388.06 405.899 2386.29 399.2 2385.98 391.192H2417.16ZM2557.41 310.573H2581.43V332.518H2557.41V391.654C2557.41 397.198 2558.33 400.894 2560.18 402.742C2562.03 404.59 2565.72 405.514 2571.27 405.514C2573.11 405.514 2574.89 405.437 2576.58 405.283C2578.27 405.129 2579.89 404.898 2581.43 404.59V430C2578.66 430.462 2575.58 430.77 2572.19 430.924C2568.8 431.078 2565.49 431.155 2562.26 431.155C2557.18 431.155 2552.32 430.77 2547.7 430C2543.24 429.384 2539.23 428.075 2535.69 426.073C2532.3 424.071 2529.61 421.222 2527.61 417.526C2525.61 413.83 2524.6 408.979 2524.6 402.973V332.518H2504.74V310.573H2524.6V274.768H2557.41V310.573ZM2630.76 292.093H2597.96V265.066H2630.76V292.093ZM2597.96 310.573H2630.76V430H2597.96V310.573ZM2737.9 352.615C2735.75 338.909 2727.66 332.056 2713.65 332.056C2708.41 332.056 2704.02 333.288 2700.48 335.752C2696.94 338.062 2694.01 341.142 2691.7 344.992C2689.55 348.688 2688.01 352.846 2687.08 357.466C2686.16 361.932 2685.7 366.398 2685.7 370.864C2685.7 375.176 2686.16 379.565 2687.08 384.031C2688.01 388.497 2689.47 392.578 2691.47 396.274C2693.63 399.816 2696.48 402.742 2700.02 405.052C2703.56 407.362 2707.87 408.517 2712.96 408.517C2720.81 408.517 2726.82 406.361 2730.97 402.049C2735.29 397.583 2737.98 391.654 2739.06 384.262H2770.71C2768.55 400.124 2762.39 412.213 2752.23 420.529C2742.06 428.845 2729.05 433.003 2713.19 433.003C2704.26 433.003 2696.02 431.54 2688.47 428.614C2681.08 425.534 2674.76 421.299 2669.53 415.909C2664.29 410.519 2660.21 404.128 2657.29 396.736C2654.36 389.19 2652.9 380.951 2652.9 372.019C2652.9 362.779 2654.21 354.232 2656.82 346.378C2659.6 338.37 2663.6 331.517 2668.84 325.819C2674.07 319.967 2680.46 315.424 2688.01 312.19C2695.55 308.956 2704.18 307.339 2713.88 307.339C2720.96 307.339 2727.74 308.263 2734.21 310.111C2740.83 311.959 2746.68 314.808 2751.76 318.658C2757 322.354 2761.24 327.051 2764.47 332.749C2767.7 338.293 2769.55 344.915 2770.01 352.615H2737.9ZM2792.24 265.066H2825.04V353.539L2866.39 310.573H2905.2L2860.15 354.463L2910.28 430H2870.55L2837.75 376.639L2825.04 388.882V430H2792.24V265.066ZM3002.27 357.466C3000.73 349.15 2997.96 342.836 2993.95 338.524C2990.1 334.212 2984.17 332.056 2976.17 332.056C2970.93 332.056 2966.54 332.98 2963 334.828C2959.61 336.522 2956.84 338.678 2954.68 341.296C2952.68 343.914 2951.22 346.686 2950.29 349.612C2949.52 352.538 2949.06 355.156 2948.91 357.466H3002.27ZM2948.91 378.256C2949.37 388.882 2952.07 396.582 2956.99 401.356C2961.92 406.13 2969.01 408.517 2978.25 408.517C2984.87 408.517 2990.57 406.9 2995.34 403.666C3000.11 400.278 3003.04 396.736 3004.12 393.04H3032.99C3028.37 407.362 3021.29 417.603 3011.74 423.763C3002.19 429.923 2990.64 433.003 2977.09 433.003C2967.7 433.003 2959.23 431.54 2951.68 428.614C2944.13 425.534 2937.74 421.222 2932.51 415.678C2927.27 410.134 2923.19 403.512 2920.26 395.812C2917.49 388.112 2916.11 379.642 2916.11 370.402C2916.11 361.47 2917.57 353.154 2920.5 345.454C2923.42 337.754 2927.58 331.132 2932.97 325.588C2938.36 319.89 2944.75 315.424 2952.14 312.19C2959.69 308.956 2968 307.339 2977.09 307.339C2987.25 307.339 2996.11 309.341 3003.66 313.345C3011.2 317.195 3017.36 322.431 3022.14 329.053C3027.06 335.675 3030.61 343.221 3032.76 351.691C3034.92 360.161 3035.69 369.016 3035.07 378.256H2948.91ZM3054.53 310.573H3085.71V332.749H3086.17C3087.71 329.053 3089.79 325.665 3092.41 322.585C3095.03 319.351 3098.03 316.656 3101.42 314.5C3104.81 312.19 3108.43 310.419 3112.28 309.187C3116.13 307.955 3120.13 307.339 3124.29 307.339C3126.44 307.339 3128.83 307.724 3131.45 308.494V338.986C3129.91 338.678 3128.06 338.447 3125.9 338.293C3123.75 337.985 3121.67 337.831 3119.67 337.831C3113.66 337.831 3108.58 338.832 3104.42 340.834C3100.26 342.836 3096.88 345.608 3094.26 349.15C3091.79 352.538 3090.02 356.542 3088.94 361.162C3087.87 365.782 3087.33 370.787 3087.33 376.177V430H3054.53V310.573ZM3169.72 391.192C3169.72 394.734 3170.41 397.814 3171.8 400.432C3173.34 402.896 3175.26 404.975 3177.57 406.669C3179.88 408.209 3182.5 409.364 3185.43 410.134C3188.51 410.904 3191.66 411.289 3194.9 411.289C3197.21 411.289 3199.59 411.058 3202.06 410.596C3204.68 409.98 3206.99 409.133 3208.99 408.055C3211.14 406.823 3212.92 405.283 3214.3 403.435C3215.69 401.433 3216.38 398.969 3216.38 396.043C3216.38 391.115 3213.07 387.419 3206.45 384.955C3199.98 382.491 3190.89 380.027 3179.19 377.563C3174.42 376.485 3169.72 375.253 3165.1 373.867C3160.63 372.327 3156.63 370.402 3153.09 368.092C3149.54 365.628 3146.7 362.625 3144.54 359.083C3142.38 355.387 3141.31 350.921 3141.31 345.685C3141.31 337.985 3142.77 331.671 3145.69 326.743C3148.77 321.815 3152.78 317.965 3157.71 315.193C3162.63 312.267 3168.18 310.265 3174.34 309.187C3180.5 307.955 3186.81 307.339 3193.28 307.339C3199.75 307.339 3205.99 307.955 3211.99 309.187C3218.15 310.419 3223.62 312.498 3228.39 315.424C3233.17 318.35 3237.09 322.277 3240.17 327.205C3243.41 331.979 3245.33 338.062 3245.95 345.454H3214.76C3214.3 339.14 3211.91 334.905 3207.6 332.749C3203.29 330.439 3198.21 329.284 3192.36 329.284C3190.51 329.284 3188.51 329.438 3186.35 329.746C3184.19 329.9 3182.19 330.362 3180.34 331.132C3178.65 331.902 3177.19 333.057 3175.96 334.597C3174.72 335.983 3174.11 337.908 3174.11 340.372C3174.11 343.298 3175.19 345.685 3177.34 347.533C3179.5 349.381 3182.27 350.921 3185.66 352.153C3189.2 353.231 3193.2 354.232 3197.67 355.156C3202.14 356.08 3206.68 357.081 3211.3 358.159C3216.07 359.237 3220.69 360.546 3225.16 362.086C3229.78 363.626 3233.86 365.705 3237.4 368.323C3240.94 370.787 3243.79 373.944 3245.95 377.794C3248.1 381.49 3249.18 386.11 3249.18 391.654C3249.18 399.508 3247.57 406.13 3244.33 411.52C3241.25 416.756 3237.17 420.991 3232.09 424.225C3227.01 427.459 3221.15 429.692 3214.53 430.924C3208.06 432.31 3201.44 433.003 3194.67 433.003C3187.74 433.003 3180.96 432.31 3174.34 430.924C3167.72 429.538 3161.79 427.228 3156.55 423.994C3151.47 420.76 3147.23 416.525 3143.85 411.289C3140.61 405.899 3138.84 399.2 3138.53 391.192H3169.72ZM3269.77 394.426H3306.03V430H3269.77V394.426Z" fill="white"/>
<path d="M858.656 1736.25C858.656 1741.8 859.657 1746.49 861.659 1750.34C863.661 1754.19 866.279 1757.35 869.513 1759.81C872.901 1762.12 876.828 1763.9 881.294 1765.13C885.76 1766.21 890.38 1766.74 895.154 1766.74C898.388 1766.74 901.853 1766.51 905.549 1766.05C909.245 1765.44 912.71 1764.36 915.944 1762.82C919.178 1761.28 921.873 1759.2 924.029 1756.58C926.185 1753.81 927.263 1750.34 927.263 1746.19C927.263 1741.72 925.8 1738.1 922.874 1735.33C920.102 1732.56 916.406 1730.25 911.786 1728.4C907.166 1726.55 901.93 1724.93 896.078 1723.55C890.226 1722.16 884.297 1720.62 878.291 1718.93C872.131 1717.39 866.125 1715.54 860.273 1713.38C854.421 1711.07 849.185 1708.15 844.565 1704.61C839.945 1701.06 836.172 1696.67 833.246 1691.44C830.474 1686.05 829.088 1679.58 829.088 1672.03C829.088 1663.56 830.859 1656.25 834.401 1650.09C838.097 1643.78 842.871 1638.54 848.723 1634.38C854.575 1630.22 861.197 1627.14 868.589 1625.14C875.981 1623.14 883.373 1622.14 890.765 1622.14C899.389 1622.14 907.628 1623.14 915.482 1625.14C923.49 1626.99 930.574 1630.07 936.734 1634.38C942.894 1638.69 947.745 1644.24 951.287 1651.01C954.983 1657.64 956.831 1665.72 956.831 1675.27H921.719C921.411 1670.34 920.333 1666.26 918.485 1663.03C916.791 1659.79 914.481 1657.25 911.555 1655.4C908.629 1653.55 905.241 1652.25 901.391 1651.48C897.695 1650.71 893.614 1650.32 889.148 1650.32C886.222 1650.32 883.296 1650.63 880.37 1651.24C877.444 1651.86 874.749 1652.94 872.285 1654.48C869.975 1656.02 868.05 1657.94 866.51 1660.25C864.97 1662.56 864.2 1665.49 864.2 1669.03C864.2 1672.27 864.816 1674.88 866.048 1676.89C867.28 1678.89 869.667 1680.74 873.209 1682.43C876.905 1684.12 881.91 1685.82 888.224 1687.51C894.692 1689.21 903.085 1691.36 913.403 1693.98C916.483 1694.6 920.718 1695.75 926.108 1697.44C931.652 1698.98 937.119 1701.53 942.509 1705.07C947.899 1708.61 952.519 1713.38 956.369 1719.39C960.373 1725.24 962.375 1732.79 962.375 1742.03C962.375 1749.57 960.912 1756.58 957.986 1763.05C955.06 1769.52 950.671 1775.14 944.819 1779.91C939.121 1784.53 931.96 1788.15 923.336 1790.77C914.866 1793.39 905.01 1794.7 893.768 1794.7C884.682 1794.7 875.827 1793.54 867.203 1791.23C858.733 1789.07 851.187 1785.61 844.565 1780.84C838.097 1776.06 832.938 1769.98 829.088 1762.59C825.238 1755.19 823.39 1746.42 823.544 1736.25H858.656ZM1040.78 1769.52C1046.17 1769.52 1050.64 1768.44 1054.18 1766.28C1057.87 1764.13 1060.8 1761.35 1062.96 1757.97C1065.27 1754.42 1066.88 1750.34 1067.81 1745.72C1068.73 1741.1 1069.19 1736.41 1069.19 1731.63C1069.19 1726.86 1068.65 1722.16 1067.58 1717.54C1066.65 1712.92 1065.03 1708.84 1062.72 1705.3C1060.41 1701.6 1057.41 1698.68 1053.72 1696.52C1050.17 1694.21 1045.78 1693.06 1040.55 1693.06C1035.16 1693.06 1030.62 1694.21 1026.92 1696.52C1023.38 1698.68 1020.45 1701.53 1018.14 1705.07C1015.99 1708.61 1014.45 1712.69 1013.52 1717.31C1012.6 1721.93 1012.14 1726.7 1012.14 1731.63C1012.14 1736.41 1012.6 1741.1 1013.52 1745.72C1014.6 1750.34 1016.22 1754.42 1018.37 1757.97C1020.68 1761.35 1023.69 1764.13 1027.38 1766.28C1031.08 1768.44 1035.54 1769.52 1040.78 1769.52ZM980.489 1671.57H1011.67V1686.82H1012.14C1016.14 1680.35 1021.22 1675.65 1027.38 1672.73C1033.54 1669.8 1040.32 1668.34 1047.71 1668.34C1057.1 1668.34 1065.19 1670.11 1071.96 1673.65C1078.74 1677.19 1084.36 1681.89 1088.83 1687.74C1093.29 1693.59 1096.6 1700.45 1098.76 1708.3C1100.92 1716 1101.99 1724.09 1101.99 1732.56C1101.99 1740.56 1100.92 1748.26 1098.76 1755.66C1096.6 1763.05 1093.29 1769.59 1088.83 1775.29C1084.52 1780.99 1079.05 1785.53 1072.43 1788.92C1065.96 1792.31 1058.34 1794 1049.56 1794C1042.17 1794 1035.31 1792.54 1029 1789.61C1022.84 1786.53 1017.76 1782.07 1013.75 1776.22H1013.29V1832.81H980.489V1671.57ZM1121.71 1671.57H1152.89V1693.75H1153.35C1154.89 1690.05 1156.97 1686.66 1159.59 1683.58C1162.21 1680.35 1165.21 1677.66 1168.6 1675.5C1171.99 1673.19 1175.61 1671.42 1179.46 1670.19C1183.31 1668.95 1187.31 1668.34 1191.47 1668.34C1193.62 1668.34 1196.01 1668.72 1198.63 1669.49V1699.99C1197.09 1699.68 1195.24 1699.45 1193.08 1699.29C1190.93 1698.98 1188.85 1698.83 1186.85 1698.83C1180.84 1698.83 1175.76 1699.83 1171.6 1701.83C1167.44 1703.84 1164.06 1706.61 1161.44 1710.15C1158.97 1713.54 1157.2 1717.54 1156.12 1722.16C1155.05 1726.78 1154.51 1731.79 1154.51 1737.18V1791H1121.71V1671.57ZM1287.82 1718.47C1286.28 1710.15 1283.5 1703.84 1279.5 1699.52C1275.65 1695.21 1269.72 1693.06 1261.71 1693.06C1256.48 1693.06 1252.09 1693.98 1248.55 1695.83C1245.16 1697.52 1242.39 1699.68 1240.23 1702.3C1238.23 1704.91 1236.77 1707.69 1235.84 1710.61C1235.07 1713.54 1234.61 1716.16 1234.46 1718.47H1287.82ZM1234.46 1739.26C1234.92 1749.88 1237.61 1757.58 1242.54 1762.36C1247.47 1767.13 1254.55 1769.52 1263.79 1769.52C1270.41 1769.52 1276.11 1767.9 1280.89 1764.67C1285.66 1761.28 1288.59 1757.74 1289.66 1754.04H1318.54C1313.92 1768.36 1306.84 1778.6 1297.29 1784.76C1287.74 1790.92 1276.19 1794 1262.64 1794C1253.24 1794 1244.77 1792.54 1237.23 1789.61C1229.68 1786.53 1223.29 1782.22 1218.05 1776.68C1212.82 1771.13 1208.74 1764.51 1205.81 1756.81C1203.04 1749.11 1201.65 1740.64 1201.65 1731.4C1201.65 1722.47 1203.12 1714.15 1206.04 1706.45C1208.97 1698.75 1213.13 1692.13 1218.52 1686.59C1223.91 1680.89 1230.3 1676.42 1237.69 1673.19C1245.24 1669.96 1253.55 1668.34 1262.64 1668.34C1272.8 1668.34 1281.66 1670.34 1289.2 1674.35C1296.75 1678.19 1302.91 1683.43 1307.68 1690.05C1312.61 1696.67 1316.15 1704.22 1318.31 1712.69C1320.46 1721.16 1321.23 1730.02 1320.62 1739.26H1234.46ZM1338.69 1708.3C1339.15 1700.6 1341.07 1694.21 1344.46 1689.13C1347.85 1684.05 1352.16 1679.97 1357.4 1676.89C1362.63 1673.81 1368.49 1671.65 1374.95 1670.42C1381.58 1669.03 1388.2 1668.34 1394.82 1668.34C1400.83 1668.34 1406.91 1668.8 1413.07 1669.72C1419.23 1670.49 1424.85 1672.11 1429.93 1674.58C1435.01 1677.04 1439.17 1680.5 1442.41 1684.97C1445.64 1689.28 1447.26 1695.06 1447.26 1702.3V1764.43C1447.26 1769.82 1447.56 1774.98 1448.18 1779.91C1448.8 1784.84 1449.87 1788.54 1451.41 1791H1418.15C1417.53 1789.15 1417 1787.3 1416.53 1785.46C1416.23 1783.45 1415.99 1781.45 1415.84 1779.45C1410.6 1784.84 1404.44 1788.61 1397.36 1790.77C1390.28 1792.93 1383.04 1794 1375.65 1794C1369.95 1794 1364.64 1793.31 1359.71 1791.92C1354.78 1790.54 1350.47 1788.38 1346.77 1785.46C1343.08 1782.53 1340.15 1778.83 1337.99 1774.37C1335.99 1769.9 1334.99 1764.59 1334.99 1758.43C1334.99 1751.65 1336.15 1746.11 1338.46 1741.8C1340.92 1737.33 1344 1733.79 1347.7 1731.17C1351.55 1728.55 1355.86 1726.63 1360.63 1725.4C1365.56 1724.01 1370.49 1722.93 1375.42 1722.16C1380.34 1721.39 1385.19 1720.78 1389.97 1720.31C1394.74 1719.85 1398.98 1719.16 1402.67 1718.23C1406.37 1717.31 1409.3 1716 1411.45 1714.31C1413.61 1712.46 1414.61 1709.84 1414.45 1706.45C1414.45 1702.91 1413.84 1700.14 1412.61 1698.14C1411.53 1695.98 1409.99 1694.36 1407.99 1693.29C1406.14 1692.05 1403.91 1691.28 1401.29 1690.98C1398.82 1690.51 1396.13 1690.28 1393.2 1690.28C1386.73 1690.28 1381.65 1691.67 1377.96 1694.44C1374.26 1697.21 1372.1 1701.83 1371.49 1708.3H1338.69ZM1414.45 1732.56C1413.07 1733.79 1411.3 1734.79 1409.14 1735.56C1407.14 1736.18 1404.91 1736.71 1402.44 1737.18C1400.13 1737.64 1397.67 1738.02 1395.05 1738.33C1392.43 1738.64 1389.81 1739.02 1387.2 1739.49C1384.73 1739.95 1382.27 1740.56 1379.8 1741.33C1377.49 1742.1 1375.42 1743.18 1373.57 1744.57C1371.87 1745.8 1370.49 1747.42 1369.41 1749.42C1368.33 1751.42 1367.79 1753.96 1367.79 1757.04C1367.79 1759.97 1368.33 1762.43 1369.41 1764.43C1370.49 1766.44 1371.95 1768.05 1373.8 1769.29C1375.65 1770.36 1377.8 1771.13 1380.27 1771.6C1382.73 1772.06 1385.27 1772.29 1387.89 1772.29C1394.36 1772.29 1399.36 1771.21 1402.9 1769.05C1406.45 1766.9 1409.06 1764.36 1410.76 1761.43C1412.45 1758.35 1413.45 1755.27 1413.76 1752.19C1414.22 1749.11 1414.45 1746.65 1414.45 1744.8V1732.56ZM1557.49 1730.94C1557.49 1726.01 1557.03 1721.31 1556.11 1716.85C1555.18 1712.23 1553.57 1708.22 1551.26 1704.84C1549.1 1701.29 1546.25 1698.45 1542.71 1696.29C1539.17 1694.13 1534.7 1693.06 1529.31 1693.06C1523.92 1693.06 1519.38 1694.13 1515.68 1696.29C1511.99 1698.45 1508.98 1701.29 1506.67 1704.84C1504.52 1708.38 1502.9 1712.46 1501.82 1717.08C1500.9 1721.55 1500.44 1726.24 1500.44 1731.17C1500.44 1735.79 1500.98 1740.41 1502.05 1745.03C1503.13 1749.65 1504.83 1753.81 1507.14 1757.5C1509.6 1761.05 1512.6 1763.97 1516.15 1766.28C1519.84 1768.44 1524.23 1769.52 1529.31 1769.52C1534.7 1769.52 1539.17 1768.44 1542.71 1766.28C1546.41 1764.13 1549.33 1761.28 1551.49 1757.74C1553.64 1754.04 1555.18 1749.88 1556.11 1745.26C1557.03 1740.64 1557.49 1735.87 1557.49 1730.94ZM1557.96 1775.75H1557.49C1553.64 1782.22 1548.56 1786.92 1542.25 1789.84C1536.09 1792.62 1529.08 1794 1521.23 1794C1512.3 1794 1504.44 1792.31 1497.67 1788.92C1490.89 1785.38 1485.27 1780.68 1480.8 1774.83C1476.49 1768.82 1473.18 1761.97 1470.87 1754.27C1468.71 1746.57 1467.64 1738.56 1467.64 1730.25C1467.64 1722.24 1468.71 1714.54 1470.87 1707.15C1473.18 1699.6 1476.49 1692.98 1480.8 1687.28C1485.27 1681.58 1490.81 1677.04 1497.43 1673.65C1504.06 1670.11 1511.76 1668.34 1520.53 1668.34C1527.62 1668.34 1534.32 1669.88 1540.63 1672.96C1547.1 1675.88 1552.18 1680.27 1555.88 1686.13H1556.34V1626.07H1589.14V1791H1557.96V1775.75ZM1719.81 1671.57H1743.83V1693.52H1719.81V1752.65C1719.81 1758.2 1720.73 1761.89 1722.58 1763.74C1724.43 1765.59 1728.12 1766.51 1733.67 1766.51C1735.51 1766.51 1737.28 1766.44 1738.98 1766.28C1740.67 1766.13 1742.29 1765.9 1743.83 1765.59V1791C1741.06 1791.46 1737.98 1791.77 1734.59 1791.92C1731.2 1792.08 1727.89 1792.16 1724.66 1792.16C1719.57 1792.16 1714.72 1791.77 1710.1 1791C1705.64 1790.38 1701.63 1789.07 1698.09 1787.07C1694.7 1785.07 1692.01 1782.22 1690.01 1778.53C1688 1774.83 1687 1769.98 1687 1763.97V1693.52H1667.14V1671.57H1687V1635.77H1719.81V1671.57ZM1759.44 1626.07H1792.24V1688.2H1792.93C1797.09 1681.27 1802.4 1676.27 1808.87 1673.19C1815.34 1669.96 1821.65 1668.34 1827.81 1668.34C1836.59 1668.34 1843.75 1669.57 1849.3 1672.03C1854.99 1674.34 1859.46 1677.66 1862.69 1681.97C1865.93 1686.13 1868.16 1691.28 1869.39 1697.44C1870.78 1703.45 1871.47 1710.15 1871.47 1717.54V1791H1838.67V1723.55C1838.67 1713.69 1837.13 1706.38 1834.05 1701.6C1830.97 1696.67 1825.5 1694.21 1817.65 1694.21C1808.72 1694.21 1802.25 1696.91 1798.24 1702.3C1794.24 1707.53 1792.24 1716.23 1792.24 1728.4V1791H1759.44V1626.07ZM1976.76 1718.47C1975.22 1710.15 1972.44 1703.84 1968.44 1699.52C1964.59 1695.21 1958.66 1693.06 1950.65 1693.06C1945.42 1693.06 1941.03 1693.98 1937.49 1695.83C1934.1 1697.52 1931.33 1699.68 1929.17 1702.3C1927.17 1704.91 1925.7 1707.69 1924.78 1710.61C1924.01 1713.54 1923.55 1716.16 1923.39 1718.47H1976.76ZM1923.39 1739.26C1923.86 1749.88 1926.55 1757.58 1931.48 1762.36C1936.41 1767.13 1943.49 1769.52 1952.73 1769.52C1959.35 1769.52 1965.05 1767.9 1969.83 1764.67C1974.6 1761.28 1977.53 1757.74 1978.6 1754.04H2007.48C2002.86 1768.36 1995.77 1778.6 1986.23 1784.76C1976.68 1790.92 1965.13 1794 1951.58 1794C1942.18 1794 1933.71 1792.54 1926.17 1789.61C1918.62 1786.53 1912.23 1782.22 1906.99 1776.68C1901.76 1771.13 1897.68 1764.51 1894.75 1756.81C1891.98 1749.11 1890.59 1740.64 1890.59 1731.4C1890.59 1722.47 1892.06 1714.15 1894.98 1706.45C1897.91 1698.75 1902.07 1692.13 1907.46 1686.59C1912.85 1680.89 1919.24 1676.42 1926.63 1673.19C1934.17 1669.96 1942.49 1668.34 1951.58 1668.34C1961.74 1668.34 1970.6 1670.34 1978.14 1674.35C1985.69 1678.19 1991.85 1683.43 1996.62 1690.05C2001.55 1696.67 2005.09 1704.22 2007.25 1712.69C2009.4 1721.16 2010.17 1730.02 2009.56 1739.26H1923.39ZM2229.83 1791H2196.1L2174.85 1710.84H2174.39L2154.06 1791H2120.1L2082.22 1671.57H2116.87L2138.81 1752.65H2139.27L2159.14 1671.57H2191.02L2211.35 1752.42H2211.81L2233.75 1671.57H2267.48L2229.83 1791ZM2310.55 1731.4C2310.55 1736.18 2311.01 1740.87 2311.93 1745.49C2312.86 1749.96 2314.4 1754.04 2316.55 1757.74C2318.86 1761.28 2321.87 1764.13 2325.56 1766.28C2329.26 1768.44 2333.88 1769.52 2339.42 1769.52C2344.97 1769.52 2349.59 1768.44 2353.28 1766.28C2357.13 1764.13 2360.14 1761.28 2362.29 1757.74C2364.6 1754.04 2366.22 1749.96 2367.14 1745.49C2368.07 1740.87 2368.53 1736.18 2368.53 1731.4C2368.53 1726.63 2368.07 1721.93 2367.14 1717.31C2366.22 1712.69 2364.6 1708.61 2362.29 1705.07C2360.14 1701.53 2357.13 1698.68 2353.28 1696.52C2349.59 1694.21 2344.97 1693.06 2339.42 1693.06C2333.88 1693.06 2329.26 1694.21 2325.56 1696.52C2321.87 1698.68 2318.86 1701.53 2316.55 1705.07C2314.4 1708.61 2312.86 1712.69 2311.93 1717.31C2311.01 1721.93 2310.55 1726.63 2310.55 1731.4ZM2277.75 1731.4C2277.75 1721.85 2279.21 1713.23 2282.14 1705.53C2285.06 1697.68 2289.22 1691.05 2294.61 1685.66C2300 1680.12 2306.47 1675.88 2314.01 1672.96C2321.56 1669.88 2330.03 1668.34 2339.42 1668.34C2348.82 1668.34 2357.29 1669.88 2364.83 1672.96C2372.53 1675.88 2379.08 1680.12 2384.47 1685.66C2389.86 1691.05 2394.02 1697.68 2396.94 1705.53C2399.87 1713.23 2401.33 1721.85 2401.33 1731.4C2401.33 1740.95 2399.87 1749.57 2396.94 1757.27C2394.02 1764.97 2389.86 1771.6 2384.47 1777.14C2379.08 1782.53 2372.53 1786.69 2364.83 1789.61C2357.29 1792.54 2348.82 1794 2339.42 1794C2330.03 1794 2321.56 1792.54 2314.01 1789.61C2306.47 1786.69 2300 1782.53 2294.61 1777.14C2289.22 1771.6 2285.06 1764.97 2282.14 1757.27C2279.21 1749.57 2277.75 1740.95 2277.75 1731.4ZM2422.66 1671.57H2453.84V1693.75H2454.31C2455.85 1690.05 2457.93 1686.66 2460.54 1683.58C2463.16 1680.35 2466.16 1677.66 2469.55 1675.5C2472.94 1673.19 2476.56 1671.42 2480.41 1670.19C2484.26 1668.95 2488.26 1668.34 2492.42 1668.34C2494.58 1668.34 2496.96 1668.72 2499.58 1669.49V1699.99C2498.04 1699.68 2496.19 1699.45 2494.04 1699.29C2491.88 1698.98 2489.8 1698.83 2487.8 1698.83C2481.8 1698.83 2476.71 1699.83 2472.56 1701.83C2468.4 1703.84 2465.01 1706.61 2462.39 1710.15C2459.93 1713.54 2458.16 1717.54 2457.08 1722.16C2456 1726.78 2455.46 1731.79 2455.46 1737.18V1791H2422.66V1671.57ZM2593.16 1730.94C2593.16 1726.01 2592.7 1721.31 2591.77 1716.85C2590.85 1712.23 2589.23 1708.22 2586.92 1704.84C2584.77 1701.29 2581.92 1698.45 2578.38 1696.29C2574.83 1694.13 2570.37 1693.06 2564.98 1693.06C2559.59 1693.06 2555.04 1694.13 2551.35 1696.29C2547.65 1698.45 2544.65 1701.29 2542.34 1704.84C2540.18 1708.38 2538.57 1712.46 2537.49 1717.08C2536.56 1721.55 2536.1 1726.24 2536.1 1731.17C2536.1 1735.79 2536.64 1740.41 2537.72 1745.03C2538.8 1749.65 2540.49 1753.81 2542.8 1757.5C2545.27 1761.05 2548.27 1763.97 2551.81 1766.28C2555.51 1768.44 2559.9 1769.52 2564.98 1769.52C2570.37 1769.52 2574.83 1768.44 2578.38 1766.28C2582.07 1764.13 2585 1761.28 2587.15 1757.74C2589.31 1754.04 2590.85 1749.88 2591.77 1745.26C2592.7 1740.64 2593.16 1735.87 2593.16 1730.94ZM2593.62 1775.75H2593.16C2589.31 1782.22 2584.23 1786.92 2577.91 1789.84C2571.75 1792.62 2564.75 1794 2556.89 1794C2547.96 1794 2540.11 1792.31 2533.33 1788.92C2526.55 1785.38 2520.93 1780.68 2516.47 1774.83C2512.16 1768.82 2508.84 1761.97 2506.53 1754.27C2504.38 1746.57 2503.3 1738.56 2503.3 1730.25C2503.3 1722.24 2504.38 1714.54 2506.53 1707.15C2508.84 1699.6 2512.16 1692.98 2516.47 1687.28C2520.93 1681.58 2526.48 1677.04 2533.1 1673.65C2539.72 1670.11 2547.42 1668.34 2556.2 1668.34C2563.28 1668.34 2569.98 1669.88 2576.3 1672.96C2582.76 1675.88 2587.85 1680.27 2591.54 1686.13H2592V1626.07H2624.81V1791H2593.62V1775.75ZM2650.99 1755.43H2687.25V1791H2650.99V1755.43Z" fill="white"/>
<path d="M1568.14 943.993C1568.14 949.057 1569.05 953.347 1570.88 956.864C1572.71 960.381 1575.1 963.264 1578.05 965.515C1581.15 967.625 1584.73 969.243 1588.81 970.368C1592.89 971.353 1597.11 971.845 1601.47 971.845C1604.43 971.845 1607.59 971.634 1610.97 971.212C1614.35 970.649 1617.51 969.665 1620.46 968.258C1623.42 966.851 1625.88 964.952 1627.85 962.561C1629.82 960.029 1630.8 956.864 1630.8 953.066C1630.8 948.987 1629.47 945.681 1626.79 943.149C1624.26 940.617 1620.89 938.507 1616.67 936.819C1612.45 935.131 1607.66 933.654 1602.32 932.388C1596.97 931.122 1591.56 929.715 1586.07 928.168C1580.44 926.761 1574.96 925.073 1569.61 923.104C1564.27 920.994 1559.49 918.321 1555.27 915.086C1551.05 911.851 1547.6 907.842 1544.93 903.059C1542.39 898.136 1541.13 892.228 1541.13 885.335C1541.13 877.598 1542.75 870.917 1545.98 865.29C1549.36 859.523 1553.72 854.74 1559.06 850.942C1564.41 847.144 1570.46 844.331 1577.21 842.502C1583.96 840.673 1590.71 839.759 1597.47 839.759C1605.34 839.759 1612.87 840.673 1620.04 842.502C1627.36 844.19 1633.83 847.003 1639.45 850.942C1645.08 854.881 1649.51 859.945 1652.75 866.134C1656.12 872.183 1657.81 879.568 1657.81 888.289H1625.74C1625.46 883.788 1624.47 880.06 1622.79 877.106C1621.24 874.152 1619.13 871.831 1616.46 870.143C1613.78 868.455 1610.69 867.259 1607.17 866.556C1603.8 865.853 1600.07 865.501 1595.99 865.501C1593.32 865.501 1590.64 865.782 1587.97 866.345C1585.3 866.908 1582.84 867.892 1580.59 869.299C1578.48 870.706 1576.72 872.464 1575.31 874.574C1573.9 876.684 1573.2 879.357 1573.2 882.592C1573.2 885.546 1573.76 887.937 1574.89 889.766C1576.01 891.595 1578.19 893.283 1581.43 894.83C1584.81 896.377 1589.38 897.925 1595.14 899.472C1601.05 901.019 1608.72 902.989 1618.14 905.38C1620.96 905.943 1624.82 906.998 1629.75 908.545C1634.81 909.952 1639.81 912.273 1644.73 915.508C1649.65 918.743 1653.87 923.104 1657.39 928.59C1661.05 933.935 1662.88 940.828 1662.88 949.268C1662.88 956.161 1661.54 962.561 1658.87 968.469C1656.19 974.377 1652.18 979.511 1646.84 983.872C1641.63 988.092 1635.09 991.398 1627.22 993.789C1619.48 996.18 1610.48 997.376 1600.21 997.376C1591.91 997.376 1583.82 996.321 1575.94 994.211C1568.21 992.242 1561.31 989.077 1555.27 984.716C1549.36 980.355 1544.64 974.799 1541.13 968.047C1537.61 961.295 1535.92 953.277 1536.06 943.993H1568.14ZM1781.76 994H1753.27V978.808H1752.64C1748.84 985.138 1743.92 989.71 1737.87 992.523C1731.82 995.336 1725.63 996.743 1719.3 996.743C1711.28 996.743 1704.67 995.688 1699.47 993.578C1694.4 991.468 1690.39 988.514 1687.44 984.716C1684.48 980.777 1682.37 976.065 1681.11 970.579C1679.98 964.952 1679.42 958.763 1679.42 952.011V884.913H1709.38V946.525C1709.38 955.528 1710.79 962.28 1713.6 966.781C1716.42 971.142 1721.41 973.322 1728.58 973.322C1736.74 973.322 1742.65 970.931 1746.31 966.148C1749.96 961.225 1751.79 953.207 1751.79 942.094V884.913H1781.76V994ZM1859.57 974.377C1864.49 974.377 1868.57 973.392 1871.8 971.423C1875.18 969.454 1877.85 966.922 1879.82 963.827C1881.93 960.592 1883.41 956.864 1884.25 952.644C1885.1 948.424 1885.52 944.134 1885.52 939.773C1885.52 935.412 1885.03 931.122 1884.04 926.902C1883.2 922.682 1881.72 918.954 1879.61 915.719C1877.5 912.343 1874.76 909.67 1871.38 907.701C1868.15 905.591 1864.14 904.536 1859.36 904.536C1854.43 904.536 1850.28 905.591 1846.91 907.701C1843.67 909.67 1841 912.273 1838.89 915.508C1836.92 918.743 1835.51 922.471 1834.67 926.691C1833.82 930.911 1833.4 935.272 1833.4 939.773C1833.4 944.134 1833.82 948.424 1834.67 952.644C1835.65 956.864 1837.13 960.592 1839.1 963.827C1841.21 966.922 1843.95 969.454 1847.33 971.423C1850.7 973.392 1854.78 974.377 1859.57 974.377ZM1804.5 884.913H1832.98V898.839H1833.4C1837.06 892.931 1841.7 888.641 1847.33 885.968C1852.96 883.295 1859.14 881.959 1865.9 881.959C1874.48 881.959 1881.86 883.577 1888.05 886.812C1894.24 890.047 1899.38 894.338 1903.45 899.683C1907.53 905.028 1910.56 911.288 1912.53 918.462C1914.5 925.495 1915.48 932.88 1915.48 940.617C1915.48 947.932 1914.5 954.965 1912.53 961.717C1910.56 968.469 1907.53 974.447 1903.45 979.652C1899.52 984.857 1894.52 989.006 1888.47 992.101C1882.57 995.196 1875.6 996.743 1867.58 996.743C1860.83 996.743 1854.57 995.407 1848.81 992.734C1843.18 989.921 1838.54 985.841 1834.88 980.496H1834.46V1032.19H1804.5V884.913ZM1988.56 974.377C1993.48 974.377 1997.56 973.392 2000.79 971.423C2004.17 969.454 2006.84 966.922 2008.81 963.827C2010.92 960.592 2012.4 956.864 2013.24 952.644C2014.09 948.424 2014.51 944.134 2014.51 939.773C2014.51 935.412 2014.02 931.122 2013.03 926.902C2012.19 922.682 2010.71 918.954 2008.6 915.719C2006.49 912.343 2003.75 909.67 2000.37 907.701C1997.14 905.591 1993.13 904.536 1988.35 904.536C1983.42 904.536 1979.27 905.591 1975.9 907.701C1972.66 909.67 1969.99 912.273 1967.88 915.508C1965.91 918.743 1964.5 922.471 1963.66 926.691C1962.81 930.911 1962.39 935.272 1962.39 939.773C1962.39 944.134 1962.81 948.424 1963.66 952.644C1964.64 956.864 1966.12 960.592 1968.09 963.827C1970.2 966.922 1972.94 969.454 1976.32 971.423C1979.69 973.392 1983.77 974.377 1988.56 974.377ZM1933.49 884.913H1961.97V898.839H1962.39C1966.05 892.931 1970.69 888.641 1976.32 885.968C1981.95 883.295 1988.13 881.959 1994.89 881.959C2003.47 881.959 2010.85 883.577 2017.04 886.812C2023.23 890.047 2028.37 894.338 2032.44 899.683C2036.52 905.028 2039.55 911.288 2041.52 918.462C2043.49 925.495 2044.47 932.88 2044.47 940.617C2044.47 947.932 2043.49 954.965 2041.52 961.717C2039.55 968.469 2036.52 974.447 2032.44 979.652C2028.51 984.857 2023.51 989.006 2017.46 992.101C2011.56 995.196 2004.59 996.743 1996.57 996.743C1989.82 996.743 1983.56 995.407 1977.8 992.734C1972.17 989.921 1967.53 985.841 1963.87 980.496H1963.45V1032.19H1933.49V884.913ZM2089.06 939.562C2089.06 943.923 2089.48 948.213 2090.33 952.433C2091.17 956.512 2092.58 960.24 2094.55 963.616C2096.66 966.851 2099.4 969.454 2102.78 971.423C2106.15 973.392 2110.37 974.377 2115.44 974.377C2120.5 974.377 2124.72 973.392 2128.1 971.423C2131.61 969.454 2134.36 966.851 2136.33 963.616C2138.44 960.24 2139.91 956.512 2140.76 952.433C2141.6 948.213 2142.02 943.923 2142.02 939.562C2142.02 935.201 2141.6 930.911 2140.76 926.691C2139.91 922.471 2138.44 918.743 2136.33 915.508C2134.36 912.273 2131.61 909.67 2128.1 907.701C2124.72 905.591 2120.5 904.536 2115.44 904.536C2110.37 904.536 2106.15 905.591 2102.78 907.701C2099.4 909.67 2096.66 912.273 2094.55 915.508C2092.58 918.743 2091.17 922.471 2090.33 926.691C2089.48 930.911 2089.06 935.201 2089.06 939.562ZM2059.1 939.562C2059.1 930.841 2060.44 922.963 2063.11 915.93C2065.78 908.756 2069.58 902.707 2074.5 897.784C2079.43 892.72 2085.33 888.852 2092.23 886.179C2099.12 883.366 2106.86 881.959 2115.44 881.959C2124.02 881.959 2131.75 883.366 2138.65 886.179C2145.68 888.852 2151.66 892.72 2156.58 897.784C2161.51 902.707 2165.3 908.756 2167.98 915.93C2170.65 922.963 2171.99 930.841 2171.99 939.562C2171.99 948.283 2170.65 956.161 2167.98 963.194C2165.3 970.227 2161.51 976.276 2156.58 981.34C2151.66 986.263 2145.68 990.061 2138.65 992.734C2131.75 995.407 2124.02 996.743 2115.44 996.743C2106.86 996.743 2099.12 995.407 2092.23 992.734C2085.33 990.061 2079.43 986.263 2074.5 981.34C2069.58 976.276 2065.78 970.227 2063.11 963.194C2060.44 956.161 2059.1 948.283 2059.1 939.562ZM2191.47 884.913H2219.95V905.169H2220.37C2221.78 901.793 2223.68 898.698 2226.07 895.885C2228.46 892.931 2231.2 890.469 2234.3 888.5C2237.39 886.39 2240.7 884.772 2244.22 883.647C2247.73 882.522 2251.39 881.959 2255.19 881.959C2257.16 881.959 2259.34 882.311 2261.73 883.014V910.866C2260.32 910.585 2258.63 910.374 2256.67 910.233C2254.7 909.952 2252.8 909.811 2250.97 909.811C2245.48 909.811 2240.84 910.725 2237.04 912.554C2233.24 914.383 2230.15 916.915 2227.76 920.15C2225.51 923.245 2223.89 926.902 2222.91 931.122C2221.92 935.342 2221.43 939.914 2221.43 944.837V994H2191.47V884.913ZM2311.46 884.913H2333.4V904.958H2311.46V958.974C2311.46 964.038 2312.3 967.414 2313.99 969.102C2315.68 970.79 2319.05 971.634 2324.12 971.634C2325.8 971.634 2327.42 971.564 2328.97 971.423C2330.52 971.282 2331.99 971.071 2333.4 970.79V994C2330.87 994.422 2328.05 994.703 2324.96 994.844C2321.87 994.985 2318.84 995.055 2315.89 995.055C2311.25 995.055 2306.81 994.703 2302.59 994C2298.51 993.437 2294.86 992.242 2291.62 990.413C2288.53 988.584 2286.07 985.982 2284.24 982.606C2282.41 979.23 2281.49 974.799 2281.49 969.313V904.958H2263.35V884.913H2281.49V852.208H2311.46V884.913ZM2409.55 843.346H2456.18L2491.41 946.947H2491.84L2525.17 843.346H2571.81V994H2540.79V887.234H2540.37L2503.44 994H2477.91L2440.99 888.289H2440.56V994H2409.55V843.346ZM2671.23 927.746C2669.83 920.15 2667.3 914.383 2663.64 910.444C2660.12 906.505 2654.71 904.536 2647.39 904.536C2642.61 904.536 2638.6 905.38 2635.36 907.068C2632.27 908.615 2629.74 910.585 2627.77 912.976C2625.94 915.367 2624.6 917.899 2623.76 920.572C2623.06 923.245 2622.63 925.636 2622.49 927.746H2671.23ZM2622.49 946.736C2622.92 956.442 2625.38 963.475 2629.88 967.836C2634.38 972.197 2640.85 974.377 2649.29 974.377C2655.34 974.377 2660.54 972.9 2664.9 969.946C2669.26 966.851 2671.94 963.616 2672.92 960.24H2699.3C2695.08 973.322 2688.61 982.676 2679.89 988.303C2671.16 993.93 2660.61 996.743 2648.24 996.743C2639.65 996.743 2631.92 995.407 2625.03 992.734C2618.13 989.921 2612.29 985.982 2607.51 980.918C2602.73 975.854 2599 969.805 2596.33 962.772C2593.8 955.739 2592.53 948.002 2592.53 939.562C2592.53 931.403 2593.87 923.807 2596.54 916.774C2599.21 909.741 2603.01 903.692 2607.93 898.628C2612.86 893.423 2618.7 889.344 2625.45 886.39C2632.34 883.436 2639.94 881.959 2648.24 881.959C2657.52 881.959 2665.61 883.788 2672.5 887.445C2679.39 890.962 2685.02 895.744 2689.38 901.793C2693.88 907.842 2697.12 914.734 2699.09 922.471C2701.06 930.208 2701.76 938.296 2701.2 946.736H2622.49ZM2796.4 939.14C2796.4 934.639 2795.98 930.348 2795.14 926.269C2794.29 922.049 2792.82 918.392 2790.71 915.297C2788.74 912.062 2786.13 909.459 2782.9 907.49C2779.66 905.521 2775.58 904.536 2770.66 904.536C2765.74 904.536 2761.59 905.521 2758.21 907.49C2754.84 909.459 2752.09 912.062 2749.98 915.297C2748.01 918.532 2746.54 922.26 2745.55 926.48C2744.71 930.559 2744.29 934.85 2744.29 939.351C2744.29 943.571 2744.78 947.791 2745.76 952.011C2746.75 956.231 2748.3 960.029 2750.41 963.405C2752.66 966.64 2755.4 969.313 2758.63 971.423C2762.01 973.392 2766.02 974.377 2770.66 974.377C2775.58 974.377 2779.66 973.392 2782.9 971.423C2786.28 969.454 2788.95 966.851 2790.92 963.616C2792.89 960.24 2794.29 956.442 2795.14 952.222C2795.98 948.002 2796.4 943.641 2796.4 939.14ZM2796.83 980.074H2796.4C2792.89 985.982 2788.24 990.272 2782.48 992.945C2776.85 995.477 2770.45 996.743 2763.28 996.743C2755.12 996.743 2747.94 995.196 2741.75 992.101C2735.56 988.866 2730.43 984.575 2726.35 979.23C2722.41 973.744 2719.39 967.484 2717.28 960.451C2715.31 953.418 2714.32 946.103 2714.32 938.507C2714.32 931.192 2715.31 924.159 2717.28 917.407C2719.39 910.514 2722.41 904.466 2726.35 899.261C2730.43 894.056 2735.49 889.907 2741.54 886.812C2747.59 883.577 2754.63 881.959 2762.64 881.959C2769.11 881.959 2775.23 883.366 2781 886.179C2786.91 888.852 2791.55 892.861 2794.93 898.206H2795.35V843.346H2825.31V994H2796.83V980.074ZM2878.76 868.033H2848.8V843.346H2878.76V868.033ZM2848.8 884.913H2878.76V994H2848.8V884.913ZM2976.63 923.315C2974.66 910.796 2967.27 904.536 2954.47 904.536C2949.69 904.536 2945.68 905.661 2942.44 907.912C2939.21 910.022 2936.54 912.835 2934.43 916.352C2932.46 919.728 2931.05 923.526 2930.21 927.746C2929.36 931.825 2928.94 935.905 2928.94 939.984C2928.94 943.923 2929.36 947.932 2930.21 952.011C2931.05 956.09 2932.39 959.818 2934.22 963.194C2936.19 966.429 2938.79 969.102 2942.02 971.212C2945.26 973.322 2949.2 974.377 2953.84 974.377C2961.01 974.377 2966.5 972.408 2970.3 968.469C2974.24 964.39 2976.7 958.974 2977.68 952.222H3006.59C3004.62 966.711 2998.99 977.753 2989.71 985.349C2980.42 992.945 2968.54 996.743 2954.05 996.743C2945.89 996.743 2938.37 995.407 2931.47 992.734C2924.72 989.921 2918.95 986.052 2914.17 981.129C2909.39 976.206 2905.66 970.368 2902.99 963.616C2900.32 956.723 2898.98 949.198 2898.98 941.039C2898.98 932.599 2900.17 924.792 2902.57 917.618C2905.1 910.303 2908.76 904.044 2913.54 898.839C2918.32 893.494 2924.16 889.344 2931.05 886.39C2937.94 883.436 2945.82 881.959 2954.68 881.959C2961.15 881.959 2967.34 882.803 2973.25 884.491C2979.3 886.179 2984.64 888.781 2989.29 892.298C2994.07 895.674 2997.94 899.964 3000.89 905.169C3003.85 910.233 3005.53 916.282 3005.96 923.315H2976.63ZM3022.25 918.462C3022.67 911.429 3024.43 905.591 3027.52 900.949C3030.62 896.307 3034.56 892.579 3039.34 889.766C3044.12 886.953 3049.47 884.983 3055.38 883.858C3061.42 882.592 3067.47 881.959 3073.52 881.959C3079.01 881.959 3084.56 882.381 3090.19 883.225C3095.82 883.928 3100.95 885.405 3105.59 887.656C3110.24 889.907 3114.03 893.072 3116.99 897.151C3119.94 901.09 3121.42 906.365 3121.42 912.976V969.735C3121.42 974.658 3121.7 979.371 3122.26 983.872C3122.83 988.373 3123.81 991.749 3125.22 994H3094.83C3094.27 992.312 3093.78 990.624 3093.36 988.936C3093.07 987.107 3092.86 985.279 3092.72 983.45C3087.94 988.373 3082.31 991.82 3075.84 993.789C3069.37 995.758 3062.76 996.743 3056.01 996.743C3050.8 996.743 3045.95 996.11 3041.45 994.844C3036.95 993.578 3033.01 991.609 3029.63 988.936C3026.26 986.263 3023.59 982.887 3021.62 978.808C3019.79 974.729 3018.87 969.876 3018.87 964.249C3018.87 958.06 3019.93 952.996 3022.04 949.057C3024.29 944.978 3027.1 941.742 3030.48 939.351C3033.99 936.96 3037.93 935.201 3042.29 934.076C3046.8 932.81 3051.3 931.825 3055.8 931.122C3060.3 930.419 3064.73 929.856 3069.09 929.434C3073.45 929.012 3077.32 928.379 3080.7 927.535C3084.07 926.691 3086.74 925.495 3088.71 923.948C3090.68 922.26 3091.6 919.869 3091.46 916.774C3091.46 913.539 3090.89 911.007 3089.77 909.178C3088.78 907.209 3087.38 905.732 3085.55 904.747C3083.86 903.622 3081.82 902.918 3079.43 902.637C3077.18 902.215 3074.72 902.004 3072.05 902.004C3066.14 902.004 3061.5 903.27 3058.12 905.802C3054.74 908.334 3052.77 912.554 3052.21 918.462H3022.25ZM3091.46 940.617C3090.19 941.742 3088.57 942.657 3086.6 943.36C3084.78 943.923 3082.74 944.415 3080.49 944.837C3078.38 945.259 3076.12 945.611 3073.73 945.892C3071.34 946.173 3068.95 946.525 3066.56 946.947C3064.31 947.369 3062.06 947.932 3059.81 948.635C3057.7 949.338 3055.8 950.323 3054.11 951.589C3052.56 952.714 3051.3 954.191 3050.31 956.02C3049.33 957.849 3048.84 960.17 3048.84 962.983C3048.84 965.656 3049.33 967.906 3050.31 969.735C3051.3 971.564 3052.63 973.041 3054.32 974.166C3056.01 975.151 3057.98 975.854 3060.23 976.276C3062.48 976.698 3064.8 976.909 3067.19 976.909C3073.1 976.909 3077.67 975.924 3080.91 973.955C3084.14 971.986 3086.53 969.665 3088.08 966.992C3089.63 964.179 3090.54 961.365 3090.82 958.552C3091.25 955.739 3091.46 953.488 3091.46 951.8V940.617ZM3145.52 843.346H3175.48V994H3145.52V843.346ZM3298.94 935.764H3337.98L3318.99 880.482H3318.57L3298.94 935.764ZM3302.11 843.346H3336.08L3392.42 994H3358.02L3346.63 960.451H3290.29L3278.48 994H3245.14L3302.11 843.346ZM3433.05 868.033H3403.09V843.346H3433.05V868.033ZM3403.09 884.913H3433.05V994H3403.09V884.913ZM3534.08 939.14C3534.08 934.639 3533.66 930.348 3532.81 926.269C3531.97 922.049 3530.49 918.392 3528.38 915.297C3526.41 912.062 3523.81 909.459 3520.58 907.49C3517.34 905.521 3513.26 904.536 3508.34 904.536C3503.41 904.536 3499.26 905.521 3495.89 907.49C3492.51 909.459 3489.77 912.062 3487.66 915.297C3485.69 918.532 3484.21 922.26 3483.23 926.48C3482.38 930.559 3481.96 934.85 3481.96 939.351C3481.96 943.571 3482.45 947.791 3483.44 952.011C3484.42 956.231 3485.97 960.029 3488.08 963.405C3490.33 966.64 3493.07 969.313 3496.31 971.423C3499.69 973.392 3503.7 974.377 3508.34 974.377C3513.26 974.377 3517.34 973.392 3520.58 971.423C3523.95 969.454 3526.62 966.851 3528.59 963.616C3530.56 960.24 3531.97 956.442 3532.81 952.222C3533.66 948.002 3534.08 943.641 3534.08 939.14ZM3534.5 980.074H3534.08C3530.56 985.982 3525.92 990.272 3520.15 992.945C3514.53 995.477 3508.13 996.743 3500.95 996.743C3492.79 996.743 3485.62 995.196 3479.43 992.101C3473.24 988.866 3468.11 984.575 3464.03 979.23C3460.09 973.744 3457.06 967.484 3454.95 960.451C3452.98 953.418 3452 946.103 3452 938.507C3452 931.192 3452.98 924.159 3454.95 917.407C3457.06 910.514 3460.09 904.466 3464.03 899.261C3468.11 894.056 3473.17 889.907 3479.22 886.812C3485.27 883.577 3492.3 881.959 3500.32 881.959C3506.79 881.959 3512.91 883.366 3518.68 886.179C3524.58 888.852 3529.23 892.861 3532.6 898.206H3533.02V843.346H3562.99V994H3534.5V980.074ZM1548.94 1131.96H1531V1111.91H1548.94V1103.47C1548.94 1093.77 1551.96 1085.82 1558.01 1079.63C1564.06 1073.44 1573.2 1070.35 1585.44 1070.35C1588.11 1070.35 1590.78 1070.49 1593.46 1070.77C1596.13 1070.91 1598.73 1071.05 1601.26 1071.19V1093.56C1597.75 1093.13 1594.09 1092.92 1590.29 1092.92C1586.21 1092.92 1583.26 1093.91 1581.43 1095.88C1579.74 1097.71 1578.9 1100.87 1578.9 1105.37V1111.91H1599.58V1131.96H1578.9V1221H1548.94V1131.96ZM1639.24 1166.56C1639.24 1170.92 1639.67 1175.21 1640.51 1179.43C1641.35 1183.51 1642.76 1187.24 1644.73 1190.62C1646.84 1193.85 1649.58 1196.45 1652.96 1198.42C1656.34 1200.39 1660.56 1201.38 1665.62 1201.38C1670.68 1201.38 1674.9 1200.39 1678.28 1198.42C1681.8 1196.45 1684.54 1193.85 1686.51 1190.62C1688.62 1187.24 1690.1 1183.51 1690.94 1179.43C1691.78 1175.21 1692.21 1170.92 1692.21 1166.56C1692.21 1162.2 1691.78 1157.91 1690.94 1153.69C1690.1 1149.47 1688.62 1145.74 1686.51 1142.51C1684.54 1139.27 1681.8 1136.67 1678.28 1134.7C1674.9 1132.59 1670.68 1131.54 1665.62 1131.54C1660.56 1131.54 1656.34 1132.59 1652.96 1134.7C1649.58 1136.67 1646.84 1139.27 1644.73 1142.51C1642.76 1145.74 1641.35 1149.47 1640.51 1153.69C1639.67 1157.91 1639.24 1162.2 1639.24 1166.56ZM1609.28 1166.56C1609.28 1157.84 1610.62 1149.96 1613.29 1142.93C1615.96 1135.76 1619.76 1129.71 1624.69 1124.78C1629.61 1119.72 1635.52 1115.85 1642.41 1113.18C1649.3 1110.37 1657.04 1108.96 1665.62 1108.96C1674.2 1108.96 1681.94 1110.37 1688.83 1113.18C1695.86 1115.85 1701.84 1119.72 1706.76 1124.78C1711.69 1129.71 1715.49 1135.76 1718.16 1142.93C1720.83 1149.96 1722.17 1157.84 1722.17 1166.56C1722.17 1175.28 1720.83 1183.16 1718.16 1190.19C1715.49 1197.23 1711.69 1203.28 1706.76 1208.34C1701.84 1213.26 1695.86 1217.06 1688.83 1219.73C1681.94 1222.41 1674.2 1223.74 1665.62 1223.74C1657.04 1223.74 1649.3 1222.41 1642.41 1219.73C1635.52 1217.06 1629.61 1213.26 1624.69 1208.34C1619.76 1203.28 1615.96 1197.23 1613.29 1190.19C1610.62 1183.16 1609.28 1175.28 1609.28 1166.56ZM1741.65 1111.91H1770.13V1132.17H1770.56C1771.96 1128.79 1773.86 1125.7 1776.25 1122.88C1778.64 1119.93 1781.39 1117.47 1784.48 1115.5C1787.58 1113.39 1790.88 1111.77 1794.4 1110.65C1797.92 1109.52 1801.57 1108.96 1805.37 1108.96C1807.34 1108.96 1809.52 1109.31 1811.91 1110.01V1137.87C1810.51 1137.58 1808.82 1137.37 1806.85 1137.23C1804.88 1136.95 1802.98 1136.81 1801.15 1136.81C1795.66 1136.81 1791.02 1137.73 1787.22 1139.55C1783.43 1141.38 1780.33 1143.91 1777.94 1147.15C1775.69 1150.24 1774.07 1153.9 1773.09 1158.12C1772.1 1162.34 1771.61 1166.91 1771.61 1171.84V1221H1741.65V1111.91ZM1918.68 1141.24H1944.42C1948.22 1141.24 1951.87 1140.96 1955.39 1140.4C1958.91 1139.84 1962 1138.78 1964.67 1137.23C1967.35 1135.54 1969.46 1133.22 1971 1130.27C1972.69 1127.32 1973.54 1123.45 1973.54 1118.66C1973.54 1113.88 1972.69 1110.01 1971 1107.06C1969.46 1104.11 1967.35 1101.86 1964.67 1100.31C1962 1098.62 1958.91 1097.49 1955.39 1096.93C1951.87 1096.37 1948.22 1096.09 1944.42 1096.09H1918.68V1141.24ZM1885.55 1070.35H1953.49C1962.92 1070.35 1970.93 1071.75 1977.55 1074.57C1984.16 1077.24 1989.5 1080.83 1993.58 1085.33C1997.8 1089.83 2000.83 1094.96 2002.65 1100.73C2004.62 1106.5 2005.61 1112.48 2005.61 1118.66C2005.61 1124.71 2004.62 1130.69 2002.65 1136.6C2000.83 1142.37 1997.8 1147.5 1993.58 1152C1989.5 1156.5 1984.16 1160.16 1977.55 1162.97C1970.93 1165.65 1962.92 1166.98 1953.49 1166.98H1918.68V1221H1885.55V1070.35ZM2021.85 1145.46C2022.28 1138.43 2024.03 1132.59 2027.13 1127.95C2030.22 1123.31 2034.16 1119.58 2038.94 1116.77C2043.73 1113.95 2049.07 1111.98 2054.98 1110.86C2061.03 1109.59 2067.08 1108.96 2073.13 1108.96C2078.61 1108.96 2084.17 1109.38 2089.8 1110.22C2095.42 1110.93 2100.56 1112.41 2105.2 1114.66C2109.84 1116.91 2113.64 1120.07 2116.59 1124.15C2119.55 1128.09 2121.02 1133.36 2121.02 1139.98V1196.73C2121.02 1201.66 2121.3 1206.37 2121.87 1210.87C2122.43 1215.37 2123.41 1218.75 2124.82 1221H2094.44C2093.87 1219.31 2093.38 1217.62 2092.96 1215.94C2092.68 1214.11 2092.47 1212.28 2092.33 1210.45C2087.54 1215.37 2081.92 1218.82 2075.45 1220.79C2068.98 1222.76 2062.37 1223.74 2055.61 1223.74C2050.41 1223.74 2045.56 1223.11 2041.05 1221.84C2036.55 1220.58 2032.61 1218.61 2029.24 1215.94C2025.86 1213.26 2023.19 1209.89 2021.22 1205.81C2019.39 1201.73 2018.48 1196.88 2018.48 1191.25C2018.48 1185.06 2019.53 1180 2021.64 1176.06C2023.89 1171.98 2026.71 1168.74 2030.08 1166.35C2033.6 1163.96 2037.54 1162.2 2041.9 1161.08C2046.4 1159.81 2050.9 1158.83 2055.4 1158.12C2059.9 1157.42 2064.33 1156.86 2068.7 1156.43C2073.06 1156.01 2076.92 1155.38 2080.3 1154.53C2083.68 1153.69 2086.35 1152.5 2088.32 1150.95C2090.29 1149.26 2091.2 1146.87 2091.06 1143.77C2091.06 1140.54 2090.5 1138.01 2089.37 1136.18C2088.39 1134.21 2086.98 1132.73 2085.15 1131.75C2083.47 1130.62 2081.43 1129.92 2079.03 1129.64C2076.78 1129.21 2074.32 1129 2071.65 1129C2065.74 1129 2061.1 1130.27 2057.72 1132.8C2054.35 1135.33 2052.38 1139.55 2051.82 1145.46H2021.85ZM2091.06 1167.62C2089.8 1168.74 2088.18 1169.66 2086.21 1170.36C2084.38 1170.92 2082.34 1171.41 2080.09 1171.84C2077.98 1172.26 2075.73 1172.61 2073.34 1172.89C2070.95 1173.17 2068.55 1173.52 2066.16 1173.95C2063.91 1174.37 2061.66 1174.93 2059.41 1175.63C2057.3 1176.34 2055.4 1177.32 2053.71 1178.59C2052.17 1179.71 2050.9 1181.19 2049.92 1183.02C2048.93 1184.85 2048.44 1187.17 2048.44 1189.98C2048.44 1192.66 2048.93 1194.91 2049.92 1196.73C2050.9 1198.56 2052.24 1200.04 2053.93 1201.17C2055.61 1202.15 2057.58 1202.85 2059.83 1203.28C2062.08 1203.7 2064.41 1203.91 2066.8 1203.91C2072.7 1203.91 2077.28 1202.92 2080.51 1200.95C2083.75 1198.99 2086.14 1196.66 2087.69 1193.99C2089.23 1191.18 2090.15 1188.37 2090.43 1185.55C2090.85 1182.74 2091.06 1180.49 2091.06 1178.8V1167.62ZM2145.12 1070.35H2175.09V1221H2145.12V1070.35ZM2272.11 1154.75C2270.7 1147.15 2268.17 1141.38 2264.51 1137.44C2260.99 1133.51 2255.58 1131.54 2248.26 1131.54C2243.48 1131.54 2239.47 1132.38 2236.24 1134.07C2233.14 1135.62 2230.61 1137.58 2228.64 1139.98C2226.81 1142.37 2225.48 1144.9 2224.63 1147.57C2223.93 1150.24 2223.51 1152.64 2223.37 1154.75H2272.11ZM2223.37 1173.74C2223.79 1183.44 2226.25 1190.48 2230.75 1194.84C2235.25 1199.2 2241.72 1201.38 2250.16 1201.38C2256.21 1201.38 2261.42 1199.9 2265.78 1196.95C2270.14 1193.85 2272.81 1190.62 2273.79 1187.24H2300.17C2295.95 1200.32 2289.48 1209.68 2280.76 1215.3C2272.04 1220.93 2261.49 1223.74 2249.11 1223.74C2240.53 1223.74 2232.79 1222.41 2225.9 1219.73C2219 1216.92 2213.17 1212.98 2208.38 1207.92C2203.6 1202.85 2199.87 1196.81 2197.2 1189.77C2194.67 1182.74 2193.4 1175 2193.4 1166.56C2193.4 1158.4 2194.74 1150.81 2197.41 1143.77C2200.08 1136.74 2203.88 1130.69 2208.81 1125.63C2213.73 1120.42 2219.57 1116.34 2226.32 1113.39C2233.21 1110.44 2240.81 1108.96 2249.11 1108.96C2258.39 1108.96 2266.48 1110.79 2273.37 1114.45C2280.26 1117.96 2285.89 1122.74 2290.25 1128.79C2294.75 1134.84 2297.99 1141.73 2299.96 1149.47C2301.93 1157.21 2302.63 1165.3 2302.07 1173.74H2223.37ZM2343.05 1185.55C2343.05 1188.79 2343.68 1191.6 2344.95 1193.99C2346.35 1196.24 2348.11 1198.14 2350.22 1199.69C2352.33 1201.1 2354.72 1202.15 2357.4 1202.85C2360.21 1203.56 2363.09 1203.91 2366.05 1203.91C2368.16 1203.91 2370.34 1203.7 2372.59 1203.28C2374.98 1202.71 2377.09 1201.94 2378.92 1200.95C2380.89 1199.83 2382.51 1198.42 2383.77 1196.73C2385.04 1194.91 2385.67 1192.66 2385.67 1189.98C2385.67 1185.48 2382.65 1182.11 2376.6 1179.85C2370.69 1177.6 2362.39 1175.35 2351.7 1173.1C2347.34 1172.12 2343.05 1170.99 2338.83 1169.73C2334.75 1168.32 2331.09 1166.56 2327.86 1164.45C2324.62 1162.2 2322.02 1159.46 2320.05 1156.22C2318.08 1152.85 2317.1 1148.77 2317.1 1143.98C2317.1 1136.95 2318.43 1131.18 2321.1 1126.68C2323.92 1122.18 2327.58 1118.66 2332.08 1116.13C2336.58 1113.46 2341.64 1111.63 2347.27 1110.65C2352.9 1109.52 2358.66 1108.96 2364.57 1108.96C2370.48 1108.96 2376.18 1109.52 2381.66 1110.65C2387.29 1111.77 2392.28 1113.67 2396.64 1116.34C2401 1119.02 2404.59 1122.6 2407.4 1127.1C2410.36 1131.47 2412.12 1137.02 2412.68 1143.77H2384.19C2383.77 1138.01 2381.59 1134.14 2377.65 1132.17C2373.71 1130.06 2369.07 1129 2363.73 1129C2362.04 1129 2360.21 1129.14 2358.24 1129.43C2356.27 1129.57 2354.44 1129.99 2352.75 1130.69C2351.21 1131.4 2349.87 1132.45 2348.75 1133.86C2347.62 1135.12 2347.06 1136.88 2347.06 1139.13C2347.06 1141.8 2348.04 1143.98 2350.01 1145.67C2351.98 1147.36 2354.51 1148.77 2357.61 1149.89C2360.84 1150.88 2364.5 1151.79 2368.58 1152.64C2372.66 1153.48 2376.81 1154.39 2381.03 1155.38C2385.39 1156.36 2389.61 1157.56 2393.69 1158.97C2397.91 1160.37 2401.64 1162.27 2404.87 1164.66C2408.11 1166.91 2410.71 1169.8 2412.68 1173.31C2414.65 1176.69 2415.63 1180.91 2415.63 1185.97C2415.63 1193.15 2414.16 1199.2 2411.2 1204.12C2408.39 1208.9 2404.66 1212.77 2400.02 1215.72C2395.38 1218.68 2390.03 1220.72 2383.98 1221.84C2378.07 1223.11 2372.03 1223.74 2365.84 1223.74C2359.51 1223.74 2353.32 1223.11 2347.27 1221.84C2341.22 1220.58 2335.8 1218.47 2331.02 1215.51C2326.38 1212.56 2322.51 1208.69 2319.42 1203.91C2316.46 1198.99 2314.84 1192.87 2314.56 1185.55H2343.05ZM2471.15 1111.91H2493.09V1131.96H2471.15V1185.97C2471.15 1191.04 2471.99 1194.41 2473.68 1196.1C2475.37 1197.79 2478.74 1198.63 2483.81 1198.63C2485.5 1198.63 2487.11 1198.56 2488.66 1198.42C2490.21 1198.28 2491.69 1198.07 2493.09 1197.79V1221C2490.56 1221.42 2487.75 1221.7 2484.65 1221.84C2481.56 1221.98 2478.53 1222.06 2475.58 1222.06C2470.94 1222.06 2466.51 1221.7 2462.29 1221C2458.21 1220.44 2454.55 1219.24 2451.31 1217.41C2448.22 1215.58 2445.76 1212.98 2443.93 1209.61C2442.1 1206.23 2441.19 1201.8 2441.19 1196.31V1131.96H2423.04V1111.91H2441.19V1079.21H2471.15V1111.91ZM2538.15 1095.03H2508.19V1070.35H2538.15V1095.03ZM2508.19 1111.91H2538.15V1221H2508.19V1111.91ZM2561.75 1111.91H2590.23V1127.1H2590.86C2594.66 1120.77 2599.59 1116.2 2605.63 1113.39C2611.68 1110.44 2617.87 1108.96 2624.2 1108.96C2632.22 1108.96 2638.76 1110.08 2643.83 1112.33C2649.03 1114.44 2653.11 1117.47 2656.06 1121.41C2659.02 1125.21 2661.06 1129.92 2662.18 1135.54C2663.45 1141.03 2664.08 1147.15 2664.08 1153.9V1221H2634.12V1159.39C2634.12 1150.39 2632.71 1143.7 2629.9 1139.34C2627.09 1134.84 2622.09 1132.59 2614.92 1132.59C2606.76 1132.59 2600.85 1135.05 2597.19 1139.98C2593.54 1144.76 2591.71 1152.71 2591.71 1163.82V1221H2561.75V1111.91ZM2717.63 1095.03H2687.67V1070.35H2717.63V1095.03ZM2687.67 1111.91H2717.63V1221H2687.67V1111.91ZM2739.95 1145.46C2740.38 1138.43 2742.13 1132.59 2745.23 1127.95C2748.32 1123.31 2752.26 1119.58 2757.05 1116.77C2761.83 1113.95 2767.17 1111.98 2773.08 1110.86C2779.13 1109.59 2785.18 1108.96 2791.23 1108.96C2796.71 1108.96 2802.27 1109.38 2807.9 1110.22C2813.52 1110.93 2818.66 1112.41 2823.3 1114.66C2827.94 1116.91 2831.74 1120.07 2834.69 1124.15C2837.65 1128.09 2839.12 1133.36 2839.12 1139.98V1196.73C2839.12 1201.66 2839.41 1206.37 2839.97 1210.87C2840.53 1215.37 2841.52 1218.75 2842.92 1221H2812.54C2811.98 1219.31 2811.48 1217.62 2811.06 1215.94C2810.78 1214.11 2810.57 1212.28 2810.43 1210.45C2805.65 1215.37 2800.02 1218.82 2793.55 1220.79C2787.08 1222.76 2780.47 1223.74 2773.71 1223.74C2768.51 1223.74 2763.66 1223.11 2759.16 1221.84C2754.65 1220.58 2750.72 1218.61 2747.34 1215.94C2743.96 1213.26 2741.29 1209.89 2739.32 1205.81C2737.49 1201.73 2736.58 1196.88 2736.58 1191.25C2736.58 1185.06 2737.63 1180 2739.74 1176.06C2741.99 1171.98 2744.81 1168.74 2748.18 1166.35C2751.7 1163.96 2755.64 1162.2 2760 1161.08C2764.5 1159.81 2769 1158.83 2773.5 1158.12C2778 1157.42 2782.44 1156.86 2786.8 1156.43C2791.16 1156.01 2795.03 1155.38 2798.4 1154.53C2801.78 1153.69 2804.45 1152.5 2806.42 1150.95C2808.39 1149.26 2809.3 1146.87 2809.16 1143.77C2809.16 1140.54 2808.6 1138.01 2807.47 1136.18C2806.49 1134.21 2805.08 1132.73 2803.25 1131.75C2801.57 1130.62 2799.53 1129.92 2797.14 1129.64C2794.88 1129.21 2792.42 1129 2789.75 1129C2783.84 1129 2779.2 1130.27 2775.82 1132.8C2772.45 1135.33 2770.48 1139.55 2769.92 1145.46H2739.95ZM2809.16 1167.62C2807.9 1168.74 2806.28 1169.66 2804.31 1170.36C2802.48 1170.92 2800.44 1171.41 2798.19 1171.84C2796.08 1172.26 2793.83 1172.61 2791.44 1172.89C2789.05 1173.17 2786.66 1173.52 2784.26 1173.95C2782.01 1174.37 2779.76 1174.93 2777.51 1175.63C2775.4 1176.34 2773.5 1177.32 2771.82 1178.59C2770.27 1179.71 2769 1181.19 2768.02 1183.02C2767.03 1184.85 2766.54 1187.17 2766.54 1189.98C2766.54 1192.66 2767.03 1194.91 2768.02 1196.73C2769 1198.56 2770.34 1200.04 2772.03 1201.17C2773.71 1202.15 2775.68 1202.85 2777.93 1203.28C2780.18 1203.7 2782.51 1203.91 2784.9 1203.91C2790.81 1203.91 2795.38 1202.92 2798.61 1200.95C2801.85 1198.99 2804.24 1196.66 2805.79 1193.99C2807.33 1191.18 2808.25 1188.37 2808.53 1185.55C2808.95 1182.74 2809.16 1180.49 2809.16 1178.8V1167.62ZM2862.38 1111.91H2890.87V1127.1H2891.5C2895.3 1120.77 2900.22 1116.2 2906.27 1113.39C2912.32 1110.44 2918.51 1108.96 2924.84 1108.96C2932.85 1108.96 2939.4 1110.08 2944.46 1112.33C2949.66 1114.44 2953.74 1117.47 2956.7 1121.41C2959.65 1125.21 2961.69 1129.92 2962.82 1135.54C2964.08 1141.03 2964.72 1147.15 2964.72 1153.9V1221H2934.75V1159.39C2934.75 1150.39 2933.35 1143.7 2930.53 1139.34C2927.72 1134.84 2922.73 1132.59 2915.55 1132.59C2907.39 1132.59 2901.49 1135.05 2897.83 1139.98C2894.17 1144.76 2892.34 1152.71 2892.34 1163.82V1221H2862.38V1111.91ZM3010.67 1185.55C3010.67 1188.79 3011.3 1191.6 3012.56 1193.99C3013.97 1196.24 3015.73 1198.14 3017.84 1199.69C3019.95 1201.1 3022.34 1202.15 3025.01 1202.85C3027.83 1203.56 3030.71 1203.91 3033.66 1203.91C3035.77 1203.91 3037.95 1203.7 3040.21 1203.28C3042.6 1202.71 3044.71 1201.94 3046.54 1200.95C3048.5 1199.83 3050.12 1198.42 3051.39 1196.73C3052.65 1194.91 3053.29 1192.66 3053.29 1189.98C3053.29 1185.48 3050.26 1182.11 3044.21 1179.85C3038.31 1177.6 3030.01 1175.35 3019.32 1173.1C3014.96 1172.12 3010.67 1170.99 3006.45 1169.73C3002.37 1168.32 2998.71 1166.56 2995.47 1164.45C2992.24 1162.2 2989.64 1159.46 2987.67 1156.22C2985.7 1152.85 2984.71 1148.77 2984.71 1143.98C2984.71 1136.95 2986.05 1131.18 2988.72 1126.68C2991.53 1122.18 2995.19 1118.66 2999.69 1116.13C3004.19 1113.46 3009.26 1111.63 3014.89 1110.65C3020.51 1109.52 3026.28 1108.96 3032.19 1108.96C3038.1 1108.96 3043.79 1109.52 3049.28 1110.65C3054.91 1111.77 3059.9 1113.67 3064.26 1116.34C3068.62 1119.02 3072.21 1122.6 3075.02 1127.1C3077.97 1131.47 3079.73 1137.02 3080.3 1143.77H3051.81C3051.39 1138.01 3049.21 1134.14 3045.27 1132.17C3041.33 1130.06 3036.69 1129 3031.34 1129C3029.66 1129 3027.83 1129.14 3025.86 1129.43C3023.89 1129.57 3022.06 1129.99 3020.37 1130.69C3018.82 1131.4 3017.49 1132.45 3016.36 1133.86C3015.24 1135.12 3014.67 1136.88 3014.67 1139.13C3014.67 1141.8 3015.66 1143.98 3017.63 1145.67C3019.6 1147.36 3022.13 1148.77 3025.22 1149.89C3028.46 1150.88 3032.12 1151.79 3036.2 1152.64C3040.28 1153.48 3044.43 1154.39 3048.65 1155.38C3053.01 1156.36 3057.23 1157.56 3061.31 1158.97C3065.53 1160.37 3069.25 1162.27 3072.49 1164.66C3075.72 1166.91 3078.33 1169.8 3080.3 1173.31C3082.26 1176.69 3083.25 1180.91 3083.25 1185.97C3083.25 1193.15 3081.77 1199.2 3078.82 1204.12C3076.01 1208.9 3072.28 1212.77 3067.64 1215.72C3062.99 1218.68 3057.65 1220.72 3051.6 1221.84C3045.69 1223.11 3039.64 1223.74 3033.45 1223.74C3027.12 1223.74 3020.93 1223.11 3014.89 1221.84C3008.84 1220.58 3003.42 1218.47 2998.64 1215.51C2994 1212.56 2990.13 1208.69 2987.03 1203.91C2984.08 1198.99 2982.46 1192.87 2982.18 1185.55H3010.67ZM3102.05 1188.51H3135.18V1221H3102.05V1188.51Z" fill="black"/>
</g>
<defs>
<clipPath id="clip0_583_76">
<rect width="4110" height="2055" fill="white"/>
</clipPath>
</defs>
</svg>
